<svg width="16" height="16" fill="none" xmlns="http://www.w3.org/2000/svg"><g clip-path="url('#clip0_13_10')"><path d="M5.517 12.275c0 .06-.07.109-.157.109-.1.009-.17-.04-.17-.109 0-.06.07-.109.158-.109.09-.009.17.04.17.109Zm-.94-.136c-.022.06.039.13.13.148.078.03.169 0 .187-.06.018-.06-.04-.13-.13-.158-.079-.02-.166.01-.187.07Zm1.336-.051c-.087.02-.148.078-.139.148.01.06.088.1.179.078.087-.02.148-.078.139-.139-.01-.057-.091-.097-.179-.088ZM7.903.502C3.71.503.5 3.686.5 7.879c0 3.353 2.11 6.222 5.126 7.232.387.07.523-.17.523-.366 0-.188-.009-1.221-.009-1.856 0 0-2.117.453-2.561-.901 0 0-.345-.88-.841-1.107 0 0-.693-.474.048-.465 0 0 .753.06 1.168.78.662 1.167 1.772.831 2.204.632.07-.484.266-.82.484-1.02-1.69-.187-3.396-.432-3.396-3.34 0-.831.23-1.248.714-1.78-.079-.197-.336-1.007.078-2.053.632-.197 2.087.816 2.087.816a7.107 7.107 0 0 1 1.9-.257c.643 0 1.294.088 1.898.257 0 0 1.455-1.016 2.087-.816.414 1.049.157 1.856.079 2.052.484.536.78.953.78 1.781 0 2.918-1.781 3.15-3.472 3.34.278.24.514.693.514 1.403 0 1.02-.009 2.28-.009 2.528 0 .196.14.435.523.366C13.45 14.1 15.5 11.232 15.5 7.879c0-4.193-3.402-7.376-7.597-7.376ZM3.44 10.93c-.04.03-.03.1.02.157.05.048.119.07.158.03.04-.03.03-.1-.021-.157-.049-.049-.118-.07-.157-.03Zm-.327-.245c-.021.04.009.088.07.118.048.03.108.02.13-.022.02-.039-.01-.087-.07-.117-.06-.018-.109-.01-.13.02Zm.98 1.076c-.049.04-.03.13.04.188.069.069.156.078.196.03.039-.04.02-.13-.04-.188-.066-.07-.157-.078-.196-.03Zm-.345-.444c-.048.03-.048.108 0 .178.048.07.13.1.17.07.048-.04.048-.118 0-.188-.043-.07-.122-.1-.17-.06Z" fill="#272727"/></g><defs><clipPath id="clip0_13_10"><path fill="#fff" transform="translate(.5 .26)" d="M0 0h15v15.479H0z"/></clipPath></defs></svg>