<svg width="24" height="28" fill="none" xmlns="http://www.w3.org/2000/svg"><g clip-path="url('#clip0_1_134')"><path d="M12.005 7.71c-3.407 0-6.155 2.806-6.155 6.285 0 3.478 2.748 6.283 6.155 6.283 3.408 0 6.156-2.805 6.156-6.283 0-3.479-2.748-6.284-6.156-6.284Zm0 10.37c-2.201 0-4.001-1.832-4.001-4.085 0-2.254 1.794-4.086 4.002-4.086 2.207 0 4.001 1.832 4.001 4.085 0 2.254-1.8 4.086-4.002 4.086Zm7.843-10.626c0 .815-.642 1.466-1.435 1.466-.799 0-1.436-.657-1.436-1.466 0-.81.643-1.466 1.436-1.466.793 0 1.435.657 1.435 1.466Zm4.077 1.487c-.091-1.963-.53-3.702-1.94-5.135-1.403-1.433-3.106-1.881-5.03-1.98-1.982-.114-7.923-.114-9.905 0-1.918.094-3.621.542-5.03 1.975C.61 5.234.177 6.973.08 8.936c-.112 2.023-.112 8.088 0 10.112.092 1.963.53 3.702 1.94 5.135 1.409 1.433 3.107 1.881 5.03 1.98 1.982.114 7.923.114 9.905 0 1.924-.093 3.627-.542 5.03-1.98 1.404-1.433 1.844-3.172 1.94-5.135.113-2.024.113-8.083 0-10.107Zm-2.56 12.278a4.095 4.095 0 0 1-2.283 2.33c-1.58.64-5.33.492-7.077.492-1.746 0-5.501.142-7.076-.493a4.094 4.094 0 0 1-2.282-2.33c-.627-1.613-.483-5.44-.483-7.223 0-1.783-.139-5.617.483-7.225a4.095 4.095 0 0 1 2.282-2.33c1.58-.64 5.33-.492 7.076-.492 1.747 0 5.502-.142 7.077.493a4.094 4.094 0 0 1 2.282 2.33c.627 1.613.482 5.44.482 7.224 0 1.782.145 5.616-.482 7.224Z" fill="#272727"/></g><defs><clipPath id="clip0_1_134"><path fill="#fff" d="M0 0h24v28H0z"/></clipPath></defs></svg>