<svg width="17" height="16" viewBox="0 0 17 16" fill="none" xmlns="http://www.w3.org/2000/svg">
<g clip-path="url('#clip0_13_8')">
<path d="M14.8553 4.741C14.8655 4.88313 14.8655 5.02529 14.8655 5.16741C14.8655 9.50241 11.566 14.4974 5.53553 14.4974C3.67766 14.4974 1.95178 13.9593 0.5 13.0253C0.763969 13.0557 1.01775 13.0659 1.29187 13.0659C2.82484 13.0659 4.23603 12.5481 5.36294 11.6649C3.92131 11.6344 2.71319 10.6903 2.29694 9.39076C2.5 9.42119 2.70303 9.44151 2.91625 9.44151C3.21066 9.44151 3.50509 9.40088 3.77919 9.32985C2.27666 9.02526 1.14972 7.70547 1.14972 6.11157V6.07097C1.58625 6.31463 2.09391 6.46691 2.63194 6.48719C1.74869 5.89835 1.17003 4.89329 1.17003 3.75622C1.17003 3.1471 1.33244 2.58872 1.61672 2.10141C3.23094 4.09125 5.65734 5.39072 8.37812 5.53288C8.32737 5.28922 8.2969 5.03544 8.2969 4.78163C8.2969 2.9745 9.75884 1.50244 11.5761 1.50244C12.5202 1.50244 13.373 1.89838 13.972 2.53797C14.7131 2.39585 15.4238 2.12172 16.0532 1.7461C15.8096 2.50754 15.2918 3.14713 14.6116 3.55319C15.2715 3.48216 15.9111 3.29938 16.4999 3.0456C16.0533 3.69532 15.4949 4.27397 14.8553 4.741Z" fill="#272727"></path>
</g>
<defs>
<clipPath id="clip0_13_8">
<rect width="16" height="16" fill="white" transform="translate(0.5)"></rect>
</clipPath>
</defs>
</svg>
