<svg width="17" height="16" fill="none" xmlns="http://www.w3.org/2000/svg"><g clip-path="url('#clip0_13_4')"><path d="M15.768 4.357a1.9 1.9 0 0 0-1.34-1.342C13.243 2.698 8.5 2.698 8.5 2.698s-4.744 0-5.927.317a1.9 1.9 0 0 0-1.341 1.342C.915 5.54.915 8.01.915 8.01s0 2.47.317 3.653a1.873 1.873 0 0 0 1.341 1.321c1.183.317 5.927.317 5.927.317s4.744 0 5.927-.317a1.873 1.873 0 0 0 1.341-1.32c.317-1.184.317-3.654.317-3.654s0-2.47-.317-3.654Zm-8.82 5.896V5.768l3.966 2.243-3.965 2.242Z" fill="#272727"/></g><defs><clipPath id="clip0_13_4"><path fill="#fff" transform="translate(.5 .93)" d="M0 0h16v14.139H0z"/></clipPath></defs></svg>